<mxfile modified="2023-10-08T02:47:12.007Z" host="app.diagrams.net" agent="Mozilla/5.0 (Windows NT 10.0; Win64; x64) AppleWebKit/537.36 (KHTML, like Gecko) Chrome/117.0.0.0 Safari/537.36 Edg/117.0.2045.31" etag="YVsOc5Jovxs6rvDCWTl0" version="22.0.4" type="google">
  <diagram id="Ht1M8jgEwFfnCIfOTk4-" name="Page-1">
    <mxGraphModel grid="1" page="1" gridSize="10" guides="1" tooltips="1" connect="1" arrows="1" fold="1" pageScale="1" pageWidth="1169" pageHeight="827" math="0" shadow="0">
      <root>
        <mxCell id="0" />
        <mxCell id="1" parent="0" />
        <mxCell id="xacgWF0-cT94w1typfg0-8" value="&lt;font style=&quot;font-size: 20px;&quot;&gt;GitHub&lt;br&gt;&lt;/font&gt;" style="shape=image;html=1;verticalAlign=top;verticalLabelPosition=bottom;labelBackgroundColor=#ffffff;imageAspect=0;aspect=fixed;image=https://cdn4.iconfinder.com/data/icons/ionicons/512/icon-social-github-128.png" vertex="1" parent="1">
          <mxGeometry x="40" y="1226.25" width="128" height="128" as="geometry" />
        </mxCell>
        <mxCell id="xacgWF0-cT94w1typfg0-17" value="" style="group;" connectable="0" vertex="1" parent="1">
          <mxGeometry x="210" y="1010" width="640.5" height="540" as="geometry" />
        </mxCell>
        <mxCell id="xacgWF0-cT94w1typfg0-5" value="&lt;p style=&quot;line-height: 40%;&quot;&gt;&lt;br&gt;&lt;/p&gt;" style="ellipse;shape=cloud;whiteSpace=wrap;html=1;labelBackgroundColor=#1688df;" vertex="1" parent="xacgWF0-cT94w1typfg0-17">
          <mxGeometry width="640.5" height="540" as="geometry" />
        </mxCell>
        <mxCell id="pBfIwAXQjZJpt-XgYF4I-8" value="" style="edgeStyle=orthogonalEdgeStyle;rounded=0;orthogonalLoop=1;jettySize=auto;html=1;" edge="1" parent="xacgWF0-cT94w1typfg0-17" source="xacgWF0-cT94w1typfg0-6" target="xacgWF0-cT94w1typfg0-7">
          <mxGeometry relative="1" as="geometry" />
        </mxCell>
        <mxCell id="xacgWF0-cT94w1typfg0-6" value="&lt;font style=&quot;font-size: 20px;&quot;&gt;S3 Bucket&lt;/font&gt;" style="sketch=0;points=[[0,0,0],[0.25,0,0],[0.5,0,0],[0.75,0,0],[1,0,0],[0,1,0],[0.25,1,0],[0.5,1,0],[0.75,1,0],[1,1,0],[0,0.25,0],[0,0.5,0],[0,0.75,0],[1,0.25,0],[1,0.5,0],[1,0.75,0]];outlineConnect=0;fontColor=#232F3E;gradientColor=#60A337;gradientDirection=north;fillColor=#277116;strokeColor=#ffffff;dashed=0;verticalLabelPosition=bottom;verticalAlign=top;align=center;html=1;fontSize=12;fontStyle=0;aspect=fixed;shape=mxgraph.aws4.resourceIcon;resIcon=mxgraph.aws4.s3;" vertex="1" parent="xacgWF0-cT94w1typfg0-17">
          <mxGeometry x="310" y="233" width="94.5" height="94.5" as="geometry" />
        </mxCell>
        <mxCell id="xacgWF0-cT94w1typfg0-7" value="&lt;font style=&quot;font-size: 20px;&quot;&gt;CodeBuild&lt;/font&gt;" style="sketch=0;points=[[0,0,0],[0.25,0,0],[0.5,0,0],[0.75,0,0],[1,0,0],[0,1,0],[0.25,1,0],[0.5,1,0],[0.75,1,0],[1,1,0],[0,0.25,0],[0,0.5,0],[0,0.75,0],[1,0.25,0],[1,0.5,0],[1,0.75,0]];outlineConnect=0;fontColor=#232F3E;gradientColor=#4D72F3;gradientDirection=north;fillColor=#3334B9;strokeColor=#ffffff;dashed=0;verticalLabelPosition=bottom;verticalAlign=top;align=center;html=1;fontSize=12;fontStyle=0;aspect=fixed;shape=mxgraph.aws4.resourceIcon;resIcon=mxgraph.aws4.codebuild;" vertex="1" parent="xacgWF0-cT94w1typfg0-17">
          <mxGeometry x="110" y="234" width="92.5" height="92.5" as="geometry" />
        </mxCell>
        <mxCell id="xacgWF0-cT94w1typfg0-10" value="&lt;font style=&quot;font-size: 25px;&quot;&gt;AWS Services&lt;/font&gt;" style="text;html=1;strokeColor=none;fillColor=none;align=center;verticalAlign=middle;whiteSpace=wrap;rounded=0;" vertex="1" parent="xacgWF0-cT94w1typfg0-17">
          <mxGeometry x="215.37" y="140" width="209.75" height="30" as="geometry" />
        </mxCell>
        <mxCell id="xacgWF0-cT94w1typfg0-19" value="" style="edgeStyle=orthogonalEdgeStyle;html=1;endArrow=block;elbow=vertical;startArrow=none;endFill=1;strokeColor=#545B64;rounded=0;exitX=1;exitY=0.5;exitDx=0;exitDy=0;exitPerimeter=0;entryX=0;entryY=0.5;entryDx=0;entryDy=0;entryPerimeter=0;" edge="1" parent="xacgWF0-cT94w1typfg0-17" source="xacgWF0-cT94w1typfg0-7" target="xacgWF0-cT94w1typfg0-6">
          <mxGeometry width="100" relative="1" as="geometry">
            <mxPoint x="285" y="280.3399999999999" as="sourcePoint" />
            <mxPoint x="385" y="280.3399999999999" as="targetPoint" />
          </mxGeometry>
        </mxCell>
        <mxCell id="xacgWF0-cT94w1typfg0-24" value="&lt;font style=&quot;font-size: 20px;&quot;&gt;Static html &lt;br&gt;files&lt;/font&gt;" style="edgeLabel;html=1;align=center;verticalAlign=middle;resizable=0;points=[];" connectable="0" vertex="1" parent="xacgWF0-cT94w1typfg0-19">
          <mxGeometry x="0.3621" relative="1" as="geometry">
            <mxPoint x="-23" y="30" as="offset" />
          </mxGeometry>
        </mxCell>
        <mxCell id="pBfIwAXQjZJpt-XgYF4I-2" value="&lt;font style=&quot;font-size: 20px;&quot;&gt;Route 53&lt;/font&gt;" style="sketch=0;points=[[0,0,0],[0.25,0,0],[0.5,0,0],[0.75,0,0],[1,0,0],[0,1,0],[0.25,1,0],[0.5,1,0],[0.75,1,0],[1,1,0],[0,0.25,0],[0,0.5,0],[0,0.75,0],[1,0.25,0],[1,0.5,0],[1,0.75,0]];outlineConnect=0;fontColor=#232F3E;fillColor=#8C4FFF;strokeColor=#ffffff;dashed=0;verticalLabelPosition=bottom;verticalAlign=top;align=center;html=1;fontSize=12;fontStyle=0;aspect=fixed;shape=mxgraph.aws4.resourceIcon;resIcon=mxgraph.aws4.route_53;" vertex="1" parent="xacgWF0-cT94w1typfg0-17">
          <mxGeometry x="470" y="235.87" width="88.75" height="88.75" as="geometry" />
        </mxCell>
        <mxCell id="pBfIwAXQjZJpt-XgYF4I-4" value="" style="endArrow=classic;html=1;rounded=0;" edge="1" parent="xacgWF0-cT94w1typfg0-17">
          <mxGeometry width="50" height="50" relative="1" as="geometry">
            <mxPoint x="559" y="270" as="sourcePoint" />
            <mxPoint x="670.75" y="269.09" as="targetPoint" />
          </mxGeometry>
        </mxCell>
        <mxCell id="pBfIwAXQjZJpt-XgYF4I-6" value="" style="endArrow=classic;html=1;rounded=0;entryX=0;entryY=0.5;entryDx=0;entryDy=0;entryPerimeter=0;exitX=1;exitY=0.5;exitDx=0;exitDy=0;exitPerimeter=0;" edge="1" parent="xacgWF0-cT94w1typfg0-17" source="xacgWF0-cT94w1typfg0-6" target="pBfIwAXQjZJpt-XgYF4I-2">
          <mxGeometry width="50" height="50" relative="1" as="geometry">
            <mxPoint x="400" y="280" as="sourcePoint" />
            <mxPoint x="560" y="120" as="targetPoint" />
          </mxGeometry>
        </mxCell>
        <mxCell id="pBfIwAXQjZJpt-XgYF4I-7" value="" style="endArrow=classic;html=1;rounded=0;exitX=0;exitY=0.75;exitDx=0;exitDy=0;exitPerimeter=0;entryX=1;entryY=0.75;entryDx=0;entryDy=0;entryPerimeter=0;" edge="1" parent="xacgWF0-cT94w1typfg0-17" source="pBfIwAXQjZJpt-XgYF4I-2" target="xacgWF0-cT94w1typfg0-6">
          <mxGeometry width="50" height="50" relative="1" as="geometry">
            <mxPoint x="415" y="290" as="sourcePoint" />
            <mxPoint x="400" y="304" as="targetPoint" />
          </mxGeometry>
        </mxCell>
        <mxCell id="xacgWF0-cT94w1typfg0-26" value="" style="endArrow=classic;html=1;rounded=0;exitX=1;exitY=0.5;exitDx=0;exitDy=0;entryX=0;entryY=0.5;entryDx=0;entryDy=0;entryPerimeter=0;" edge="1" parent="1" source="xacgWF0-cT94w1typfg0-8" target="xacgWF0-cT94w1typfg0-7">
          <mxGeometry width="50" height="50" relative="1" as="geometry">
            <mxPoint x="340" y="1280" as="sourcePoint" />
            <mxPoint x="390" y="1230" as="targetPoint" />
          </mxGeometry>
        </mxCell>
        <mxCell id="xacgWF0-cT94w1typfg0-27" value="&lt;font style=&quot;font-size: 15px;&quot;&gt;git push event&lt;/font&gt;" style="edgeLabel;html=1;align=center;verticalAlign=middle;resizable=0;points=[];" connectable="0" vertex="1" parent="xacgWF0-cT94w1typfg0-26">
          <mxGeometry x="-0.4026" y="-3" relative="1" as="geometry">
            <mxPoint x="21" y="8" as="offset" />
          </mxGeometry>
        </mxCell>
        <mxCell id="pBfIwAXQjZJpt-XgYF4I-3" value="&lt;font style=&quot;font-size: 21px;&quot;&gt;Client&lt;/font&gt;" style="image;aspect=fixed;perimeter=ellipsePerimeter;html=1;align=center;shadow=0;dashed=0;spacingTop=3;image=img/lib/active_directory/laptop_client.svg;" vertex="1" parent="1">
          <mxGeometry x="880" y="1232.75" width="103.5" height="115" as="geometry" />
        </mxCell>
        <mxCell id="pBfIwAXQjZJpt-XgYF4I-5" value="" style="endArrow=classic;html=1;rounded=0;entryX=1;entryY=0.75;entryDx=0;entryDy=0;entryPerimeter=0;" edge="1" parent="1" target="pBfIwAXQjZJpt-XgYF4I-2">
          <mxGeometry width="50" height="50" relative="1" as="geometry">
            <mxPoint x="870" y="1312" as="sourcePoint" />
            <mxPoint x="930" y="1290" as="targetPoint" />
          </mxGeometry>
        </mxCell>
      </root>
    </mxGraphModel>
  </diagram>
</mxfile>
